<svg width="239" height="239" viewBox="0 0 239 239" fill="none" xmlns="http://www.w3.org/2000/svg">
<circle cx="120" cy="120" r="115" fill="white"/>
<mask id="path-2-outside-1" maskUnits="userSpaceOnUse" x="1" y="1" width="237" height="237" fill="black">
<rect fill="white" x="1" y="1" width="237" height="237"/>
<path d="M100.832 230.378C102.887 230.378 104.913 231.177 106.443 232.701C108.75 235 112.334 235.275 114.967 233.361C117.761 231.33 121.517 231.329 124.314 233.349C126.952 235.26 130.536 234.973 132.835 232.668C135.276 230.226 138.983 229.635 142.065 231.195C144.966 232.668 148.462 231.822 150.377 229.189C152.404 226.394 155.977 225.228 159.259 226.291C162.357 227.284 165.677 225.91 167.155 223.008C168.719 219.932 172.059 218.217 175.474 218.756C178.695 219.256 181.756 217.374 182.76 214.278C183.825 210.995 186.861 208.784 190.312 208.778C193.568 208.771 196.3 206.433 196.808 203.217C197.346 199.807 199.998 197.149 203.407 196.602C206.621 196.086 208.953 193.349 208.952 190.091C208.951 186.64 211.153 183.601 214.435 182.526C217.529 181.513 219.405 178.447 218.895 175.23C218.351 171.819 220.052 168.471 223.126 166.899C226.025 165.415 227.396 162.091 226.388 158.995C225.319 155.712 226.477 152.139 229.265 150.103C231.896 148.185 232.731 144.686 231.251 141.788C229.681 138.713 230.263 135.003 232.7 132.557C234.998 130.251 235.275 126.665 233.362 124.032C231.329 121.24 231.326 117.485 233.349 114.687C235.259 112.051 234.971 108.465 232.668 106.164C230.226 103.725 229.634 100.016 231.195 96.9371C232.668 94.0329 231.824 90.5379 229.188 88.6255C226.394 86.5982 225.229 83.0279 226.291 79.742C227.291 76.6436 225.91 73.3223 223.008 71.8462C219.931 70.2799 218.223 66.9367 218.756 63.5264C219.258 60.309 217.376 57.2448 214.28 56.2406C210.996 55.1751 208.784 52.1409 208.777 48.6882C208.771 45.4326 206.432 42.7007 203.216 42.1919C199.808 41.6543 197.148 39.0032 196.601 35.5929C196.086 32.3796 193.35 30.0486 190.096 30.0486H190.087C186.636 30.0486 183.599 27.8448 182.526 24.5645C181.514 21.4715 178.452 19.6015 175.23 20.1063C171.826 20.6535 168.473 18.9477 166.899 15.8752C165.414 12.9766 162.09 11.6032 158.995 12.6127C155.714 13.6797 152.142 12.5252 150.106 9.7359C148.187 7.10534 144.685 6.27089 141.788 7.74964C138.711 9.31731 135.002 8.73593 132.558 6.29825C130.25 4.0042 126.665 3.72515 124.031 5.6389C121.24 7.6703 117.485 7.67304 114.688 5.65121C112.049 3.74156 108.465 4.02883 106.163 6.33246C103.724 8.77425 100.016 9.3652 96.9364 7.80438C94.0336 6.33246 90.5386 7.17511 88.6247 9.81115C86.5961 12.6045 83.0244 13.7686 79.7414 12.7098C76.6456 11.7099 73.3243 13.0902 71.8469 15.9916C70.2806 19.068 66.9374 20.778 63.5271 20.2445C60.3138 19.7397 57.2454 21.6247 56.24 24.7218C55.1758 28.0049 52.1403 30.2155 48.6876 30.2223C45.4318 30.2291 42.7001 32.567 42.1926 35.7844C41.6536 39.1933 39.0026 41.8526 35.5936 42.3984C32.379 42.9141 30.0465 45.6514 30.048 48.9085C30.0507 52.3598 27.8469 55.4008 24.5653 56.4746C21.4695 57.4855 19.5955 60.5552 20.1057 63.7712C20.6488 67.1802 18.9484 70.5276 15.876 72.1007C12.976 73.5849 11.6039 76.909 12.6121 80.0047C13.6804 83.2891 12.5246 86.8609 9.73531 88.8949C7.10475 90.8142 6.27031 94.312 7.74905 97.2121C9.31946 100.287 8.73534 103.997 6.3004 106.443C4.00225 108.749 3.72456 112.335 5.63832 114.968C7.66972 117.76 7.67381 121.515 5.65062 124.313C3.74097 126.952 4.02824 130.535 6.33186 132.837C8.77501 135.276 9.36734 138.982 7.80514 142.063C6.33323 144.965 7.17588 148.462 9.81191 150.376C12.6052 152.404 13.7694 155.972 12.7106 159.258C11.7106 162.357 13.0895 165.677 15.9909 167.154C19.0688 168.719 20.7787 172.062 20.2453 175.473C19.7418 178.693 21.6241 181.755 24.7198 182.76C28.0056 183.824 30.2162 186.86 30.223 190.312C30.2299 193.567 32.5677 196.299 35.7837 196.807C39.194 197.347 41.8533 199.998 42.3991 203.407C42.9135 206.621 45.6493 208.952 48.9023 208.952H48.9106C52.3619 208.952 55.4015 211.154 56.4739 214.435C57.4862 217.529 60.5586 219.404 63.7692 218.892C67.1754 218.354 70.5268 220.051 72.1013 223.126C73.5842 226.023 76.911 227.398 80.004 226.388C83.2897 225.322 86.8601 226.475 88.8942 229.265C90.8162 231.895 94.3113 232.729 97.2127 231.251C98.3631 230.664 99.6039 230.378 100.832 230.378ZM111.088 236C109.049 236 107.025 235.212 105.477 233.67C103.453 231.654 100.381 231.17 97.8337 232.468C94.3318 234.255 90.1076 233.246 87.7903 230.07C86.1036 227.763 83.1448 226.803 80.428 227.689C76.6908 228.909 72.6759 227.25 70.8838 223.749C69.5803 221.205 66.8087 219.795 63.9853 220.245C60.1004 220.852 56.396 218.599 55.1743 214.86C54.2866 212.144 51.7696 210.319 48.9119 210.319H48.9023C44.9736 210.319 41.6714 207.504 41.0489 203.624C40.5962 200.801 38.3938 198.605 35.5703 198.158C31.6867 197.546 28.8633 194.247 28.8551 190.315C28.8497 187.456 27.0179 184.943 24.2998 184.062C20.5585 182.848 18.2849 179.148 18.8938 175.263C19.3342 172.439 17.9197 169.67 15.3712 168.373C11.8679 166.591 10.2004 162.579 11.4083 158.839C12.2851 156.119 11.3208 153.163 9.00757 151.481C5.82572 149.174 4.80659 144.952 6.58629 141.443C7.879 138.895 7.38791 135.824 5.36472 133.803C2.58369 131.025 2.2376 126.695 4.54122 123.511C6.21832 121.195 6.21422 118.084 4.53301 115.773C2.21981 112.593 2.55496 108.264 5.33189 105.477C7.34688 103.453 7.83113 100.38 6.53021 97.8331C4.74504 94.3312 5.75322 90.107 8.92959 87.791C11.2387 86.1058 12.1962 83.1482 11.3112 80.4287C10.0951 76.6888 11.7517 72.6752 15.2509 70.8832C17.7966 69.5809 19.2042 66.808 18.7556 63.986C18.1386 60.1024 20.4025 56.3966 24.1411 55.1736C26.8579 54.2845 28.6827 51.7675 28.68 48.9085C28.6786 44.977 31.4939 41.6707 35.3761 41.0482C38.1995 40.5955 40.3951 38.3945 40.8411 35.5696C41.4552 31.686 44.7534 28.8626 48.6848 28.8544C51.5439 28.8489 54.0581 27.0186 54.9391 24.2991C56.1525 20.5592 59.8486 18.2883 63.7364 18.8916C66.5625 19.3403 69.3326 17.9189 70.6267 15.3719C72.4105 11.8672 76.4186 10.1983 80.1626 11.4089C82.8849 12.2858 85.8397 11.3214 87.5181 9.00679C89.8272 5.82631 94.05 4.80856 97.5547 6.58553C100.105 7.87687 103.177 7.38714 105.196 5.36532C107.977 2.58565 112.307 2.23955 115.49 4.5418C117.806 6.21891 120.917 6.2148 123.227 4.53223C126.406 2.21902 130.736 2.55692 133.523 5.32975C135.55 7.34748 138.622 7.829 141.165 6.53081C144.671 4.74153 148.892 5.75245 151.211 8.92882C152.895 11.2393 155.852 12.1955 158.572 11.3104C162.304 10.0957 166.325 11.7509 168.118 15.2514C169.421 17.7958 172.197 19.2008 175.014 18.7561C178.903 18.1365 182.604 20.4031 183.827 24.1404C184.714 26.8558 187.231 28.6807 190.088 28.6807H190.096C194.025 28.6807 197.329 31.4959 197.953 35.3767C198.404 38.2001 200.606 40.3957 203.429 40.8417C207.314 41.4545 210.137 44.754 210.145 48.6855C210.151 51.5445 211.982 54.0574 214.702 54.9384C218.441 56.1531 220.715 59.852 220.107 63.737C219.666 66.5618 221.08 69.3306 223.628 70.6261C227.133 72.4098 228.799 76.4207 227.592 80.162C226.714 82.8828 227.679 85.839 229.992 87.5175C233.174 89.8279 234.194 94.0494 232.415 97.5555C231.122 100.107 231.614 103.176 233.636 105.197C236.416 107.975 236.763 112.305 234.458 115.49C232.782 117.806 232.786 120.915 234.467 123.227C236.78 126.407 236.445 130.736 233.67 133.522C231.651 135.549 231.169 138.621 232.468 141.165C234.256 144.668 233.248 148.892 230.071 151.21C227.761 152.894 226.804 155.853 227.689 158.573C228.906 162.31 227.25 166.325 223.747 168.117C221.203 169.418 219.798 172.192 220.246 175.016C220.861 178.899 218.596 182.605 214.859 183.827C212.144 184.715 210.319 187.233 210.32 190.091C210.322 194.025 207.504 197.329 203.624 197.952C200.801 198.405 198.605 200.605 198.159 203.431C197.547 207.314 194.247 210.138 190.316 210.146C187.456 210.153 184.944 211.983 184.061 214.701C182.849 218.44 179.157 220.714 175.264 220.107C172.433 219.672 169.669 221.083 168.373 223.628C166.592 227.132 162.579 228.802 158.839 227.592C156.12 226.713 153.161 227.676 151.482 229.993C149.175 233.173 144.956 234.193 141.444 232.416C138.901 231.125 135.829 231.612 133.804 233.635C131.025 236.418 126.695 236.762 123.511 234.457C121.192 232.782 118.082 232.788 115.773 234.466C114.36 235.495 112.718 236 111.088 236Z"/>
</mask>
<path d="M100.832 230.378C102.887 230.378 104.913 231.177 106.443 232.701C108.75 235 112.334 235.275 114.967 233.361C117.761 231.33 121.517 231.329 124.314 233.349C126.952 235.26 130.536 234.973 132.835 232.668C135.276 230.226 138.983 229.635 142.065 231.195C144.966 232.668 148.462 231.822 150.377 229.189C152.404 226.394 155.977 225.228 159.259 226.291C162.357 227.284 165.677 225.91 167.155 223.008C168.719 219.932 172.059 218.217 175.474 218.756C178.695 219.256 181.756 217.374 182.76 214.278C183.825 210.995 186.861 208.784 190.312 208.778C193.568 208.771 196.3 206.433 196.808 203.217C197.346 199.807 199.998 197.149 203.407 196.602C206.621 196.086 208.953 193.349 208.952 190.091C208.951 186.64 211.153 183.601 214.435 182.526C217.529 181.513 219.405 178.447 218.895 175.23C218.351 171.819 220.052 168.471 223.126 166.899C226.025 165.415 227.396 162.091 226.388 158.995C225.319 155.712 226.477 152.139 229.265 150.103C231.896 148.185 232.731 144.686 231.251 141.788C229.681 138.713 230.263 135.003 232.7 132.557C234.998 130.251 235.275 126.665 233.362 124.032C231.329 121.24 231.326 117.485 233.349 114.687C235.259 112.051 234.971 108.465 232.668 106.164C230.226 103.725 229.634 100.016 231.195 96.9371C232.668 94.0329 231.824 90.5379 229.188 88.6255C226.394 86.5982 225.229 83.0279 226.291 79.742C227.291 76.6436 225.91 73.3223 223.008 71.8462C219.931 70.2799 218.223 66.9367 218.756 63.5264C219.258 60.309 217.376 57.2448 214.28 56.2406C210.996 55.1751 208.784 52.1409 208.777 48.6882C208.771 45.4326 206.432 42.7007 203.216 42.1919C199.808 41.6543 197.148 39.0032 196.601 35.5929C196.086 32.3796 193.35 30.0486 190.096 30.0486H190.087C186.636 30.0486 183.599 27.8448 182.526 24.5645C181.514 21.4715 178.452 19.6015 175.23 20.1063C171.826 20.6535 168.473 18.9477 166.899 15.8752C165.414 12.9766 162.09 11.6032 158.995 12.6127C155.714 13.6797 152.142 12.5252 150.106 9.7359C148.187 7.10534 144.685 6.27089 141.788 7.74964C138.711 9.31731 135.002 8.73593 132.558 6.29825C130.25 4.0042 126.665 3.72515 124.031 5.6389C121.24 7.6703 117.485 7.67304 114.688 5.65121C112.049 3.74156 108.465 4.02883 106.163 6.33246C103.724 8.77425 100.016 9.3652 96.9364 7.80438C94.0336 6.33246 90.5386 7.17511 88.6247 9.81115C86.5961 12.6045 83.0244 13.7686 79.7414 12.7098C76.6456 11.7099 73.3243 13.0902 71.8469 15.9916C70.2806 19.068 66.9374 20.778 63.5271 20.2445C60.3138 19.7397 57.2454 21.6247 56.24 24.7218C55.1758 28.0049 52.1403 30.2155 48.6876 30.2223C45.4318 30.2291 42.7001 32.567 42.1926 35.7844C41.6536 39.1933 39.0026 41.8526 35.5936 42.3984C32.379 42.9141 30.0465 45.6514 30.048 48.9085C30.0507 52.3598 27.8469 55.4008 24.5653 56.4746C21.4695 57.4855 19.5955 60.5552 20.1057 63.7712C20.6488 67.1802 18.9484 70.5276 15.876 72.1007C12.976 73.5849 11.6039 76.909 12.6121 80.0047C13.6804 83.2891 12.5246 86.8609 9.73531 88.8949C7.10475 90.8142 6.27031 94.312 7.74905 97.2121C9.31946 100.287 8.73534 103.997 6.3004 106.443C4.00225 108.749 3.72456 112.335 5.63832 114.968C7.66972 117.76 7.67381 121.515 5.65062 124.313C3.74097 126.952 4.02824 130.535 6.33186 132.837C8.77501 135.276 9.36734 138.982 7.80514 142.063C6.33323 144.965 7.17588 148.462 9.81191 150.376C12.6052 152.404 13.7694 155.972 12.7106 159.258C11.7106 162.357 13.0895 165.677 15.9909 167.154C19.0688 168.719 20.7787 172.062 20.2453 175.473C19.7418 178.693 21.6241 181.755 24.7198 182.76C28.0056 183.824 30.2162 186.86 30.223 190.312C30.2299 193.567 32.5677 196.299 35.7837 196.807C39.194 197.347 41.8533 199.998 42.3991 203.407C42.9135 206.621 45.6493 208.952 48.9023 208.952H48.9106C52.3619 208.952 55.4015 211.154 56.4739 214.435C57.4862 217.529 60.5586 219.404 63.7692 218.892C67.1754 218.354 70.5268 220.051 72.1013 223.126C73.5842 226.023 76.911 227.398 80.004 226.388C83.2897 225.322 86.8601 226.475 88.8942 229.265C90.8162 231.895 94.3113 232.729 97.2127 231.251C98.3631 230.664 99.6039 230.378 100.832 230.378ZM111.088 236C109.049 236 107.025 235.212 105.477 233.67C103.453 231.654 100.381 231.17 97.8337 232.468C94.3318 234.255 90.1076 233.246 87.7903 230.07C86.1036 227.763 83.1448 226.803 80.428 227.689C76.6908 228.909 72.6759 227.25 70.8838 223.749C69.5803 221.205 66.8087 219.795 63.9853 220.245C60.1004 220.852 56.396 218.599 55.1743 214.86C54.2866 212.144 51.7696 210.319 48.9119 210.319H48.9023C44.9736 210.319 41.6714 207.504 41.0489 203.624C40.5962 200.801 38.3938 198.605 35.5703 198.158C31.6867 197.546 28.8633 194.247 28.8551 190.315C28.8497 187.456 27.0179 184.943 24.2998 184.062C20.5585 182.848 18.2849 179.148 18.8938 175.263C19.3342 172.439 17.9197 169.67 15.3712 168.373C11.8679 166.591 10.2004 162.579 11.4083 158.839C12.2851 156.119 11.3208 153.163 9.00757 151.481C5.82572 149.174 4.80659 144.952 6.58629 141.443C7.879 138.895 7.38791 135.824 5.36472 133.803C2.58369 131.025 2.2376 126.695 4.54122 123.511C6.21832 121.195 6.21422 118.084 4.53301 115.773C2.21981 112.593 2.55496 108.264 5.33189 105.477C7.34688 103.453 7.83113 100.38 6.53021 97.8331C4.74504 94.3312 5.75322 90.107 8.92959 87.791C11.2387 86.1058 12.1962 83.1482 11.3112 80.4287C10.0951 76.6888 11.7517 72.6752 15.2509 70.8832C17.7966 69.5809 19.2042 66.808 18.7556 63.986C18.1386 60.1024 20.4025 56.3966 24.1411 55.1736C26.8579 54.2845 28.6827 51.7675 28.68 48.9085C28.6786 44.977 31.4939 41.6707 35.3761 41.0482C38.1995 40.5955 40.3951 38.3945 40.8411 35.5696C41.4552 31.686 44.7534 28.8626 48.6848 28.8544C51.5439 28.8489 54.0581 27.0186 54.9391 24.2991C56.1525 20.5592 59.8486 18.2883 63.7364 18.8916C66.5625 19.3403 69.3326 17.9189 70.6267 15.3719C72.4105 11.8672 76.4186 10.1983 80.1626 11.4089C82.8849 12.2858 85.8397 11.3214 87.5181 9.00679C89.8272 5.82631 94.05 4.80856 97.5547 6.58553C100.105 7.87687 103.177 7.38714 105.196 5.36532C107.977 2.58565 112.307 2.23955 115.49 4.5418C117.806 6.21891 120.917 6.2148 123.227 4.53223C126.406 2.21902 130.736 2.55692 133.523 5.32975C135.55 7.34748 138.622 7.829 141.165 6.53081C144.671 4.74153 148.892 5.75245 151.211 8.92882C152.895 11.2393 155.852 12.1955 158.572 11.3104C162.304 10.0957 166.325 11.7509 168.118 15.2514C169.421 17.7958 172.197 19.2008 175.014 18.7561C178.903 18.1365 182.604 20.4031 183.827 24.1404C184.714 26.8558 187.231 28.6807 190.088 28.6807H190.096C194.025 28.6807 197.329 31.4959 197.953 35.3767C198.404 38.2001 200.606 40.3957 203.429 40.8417C207.314 41.4545 210.137 44.754 210.145 48.6855C210.151 51.5445 211.982 54.0574 214.702 54.9384C218.441 56.1531 220.715 59.852 220.107 63.737C219.666 66.5618 221.08 69.3306 223.628 70.6261C227.133 72.4098 228.799 76.4207 227.592 80.162C226.714 82.8828 227.679 85.839 229.992 87.5175C233.174 89.8279 234.194 94.0494 232.415 97.5555C231.122 100.107 231.614 103.176 233.636 105.197C236.416 107.975 236.763 112.305 234.458 115.49C232.782 117.806 232.786 120.915 234.467 123.227C236.78 126.407 236.445 130.736 233.67 133.522C231.651 135.549 231.169 138.621 232.468 141.165C234.256 144.668 233.248 148.892 230.071 151.21C227.761 152.894 226.804 155.853 227.689 158.573C228.906 162.31 227.25 166.325 223.747 168.117C221.203 169.418 219.798 172.192 220.246 175.016C220.861 178.899 218.596 182.605 214.859 183.827C212.144 184.715 210.319 187.233 210.32 190.091C210.322 194.025 207.504 197.329 203.624 197.952C200.801 198.405 198.605 200.605 198.159 203.431C197.547 207.314 194.247 210.138 190.316 210.146C187.456 210.153 184.944 211.983 184.061 214.701C182.849 218.44 179.157 220.714 175.264 220.107C172.433 219.672 169.669 221.083 168.373 223.628C166.592 227.132 162.579 228.802 158.839 227.592C156.12 226.713 153.161 227.676 151.482 229.993C149.175 233.173 144.956 234.193 141.444 232.416C138.901 231.125 135.829 231.612 133.804 233.635C131.025 236.418 126.695 236.762 123.511 234.457C121.192 232.782 118.082 232.788 115.773 234.466C114.36 235.495 112.718 236 111.088 236Z" fill="white"/>
<path d="M100.832 230.378C102.887 230.378 104.913 231.177 106.443 232.701C108.75 235 112.334 235.275 114.967 233.361C117.761 231.33 121.517 231.329 124.314 233.349C126.952 235.26 130.536 234.973 132.835 232.668C135.276 230.226 138.983 229.635 142.065 231.195C144.966 232.668 148.462 231.822 150.377 229.189C152.404 226.394 155.977 225.228 159.259 226.291C162.357 227.284 165.677 225.91 167.155 223.008C168.719 219.932 172.059 218.217 175.474 218.756C178.695 219.256 181.756 217.374 182.76 214.278C183.825 210.995 186.861 208.784 190.312 208.778C193.568 208.771 196.3 206.433 196.808 203.217C197.346 199.807 199.998 197.149 203.407 196.602C206.621 196.086 208.953 193.349 208.952 190.091C208.951 186.64 211.153 183.601 214.435 182.526C217.529 181.513 219.405 178.447 218.895 175.23C218.351 171.819 220.052 168.471 223.126 166.899C226.025 165.415 227.396 162.091 226.388 158.995C225.319 155.712 226.477 152.139 229.265 150.103C231.896 148.185 232.731 144.686 231.251 141.788C229.681 138.713 230.263 135.003 232.7 132.557C234.998 130.251 235.275 126.665 233.362 124.032C231.329 121.24 231.326 117.485 233.349 114.687C235.259 112.051 234.971 108.465 232.668 106.164C230.226 103.725 229.634 100.016 231.195 96.9371C232.668 94.0329 231.824 90.5379 229.188 88.6255C226.394 86.5982 225.229 83.0279 226.291 79.742C227.291 76.6436 225.91 73.3223 223.008 71.8462C219.931 70.2799 218.223 66.9367 218.756 63.5264C219.258 60.309 217.376 57.2448 214.28 56.2406C210.996 55.1751 208.784 52.1409 208.777 48.6882C208.771 45.4326 206.432 42.7007 203.216 42.1919C199.808 41.6543 197.148 39.0032 196.601 35.5929C196.086 32.3796 193.35 30.0486 190.096 30.0486H190.087C186.636 30.0486 183.599 27.8448 182.526 24.5645C181.514 21.4715 178.452 19.6015 175.23 20.1063C171.826 20.6535 168.473 18.9477 166.899 15.8752C165.414 12.9766 162.09 11.6032 158.995 12.6127C155.714 13.6797 152.142 12.5252 150.106 9.7359C148.187 7.10534 144.685 6.27089 141.788 7.74964C138.711 9.31731 135.002 8.73593 132.558 6.29825C130.25 4.0042 126.665 3.72515 124.031 5.6389C121.24 7.6703 117.485 7.67304 114.688 5.65121C112.049 3.74156 108.465 4.02883 106.163 6.33246C103.724 8.77425 100.016 9.3652 96.9364 7.80438C94.0336 6.33246 90.5386 7.17511 88.6247 9.81115C86.5961 12.6045 83.0244 13.7686 79.7414 12.7098C76.6456 11.7099 73.3243 13.0902 71.8469 15.9916C70.2806 19.068 66.9374 20.778 63.5271 20.2445C60.3138 19.7397 57.2454 21.6247 56.24 24.7218C55.1758 28.0049 52.1403 30.2155 48.6876 30.2223C45.4318 30.2291 42.7001 32.567 42.1926 35.7844C41.6536 39.1933 39.0026 41.8526 35.5936 42.3984C32.379 42.9141 30.0465 45.6514 30.048 48.9085C30.0507 52.3598 27.8469 55.4008 24.5653 56.4746C21.4695 57.4855 19.5955 60.5552 20.1057 63.7712C20.6488 67.1802 18.9484 70.5276 15.876 72.1007C12.976 73.5849 11.6039 76.909 12.6121 80.0047C13.6804 83.2891 12.5246 86.8609 9.73531 88.8949C7.10475 90.8142 6.27031 94.312 7.74905 97.2121C9.31946 100.287 8.73534 103.997 6.3004 106.443C4.00225 108.749 3.72456 112.335 5.63832 114.968C7.66972 117.76 7.67381 121.515 5.65062 124.313C3.74097 126.952 4.02824 130.535 6.33186 132.837C8.77501 135.276 9.36734 138.982 7.80514 142.063C6.33323 144.965 7.17588 148.462 9.81191 150.376C12.6052 152.404 13.7694 155.972 12.7106 159.258C11.7106 162.357 13.0895 165.677 15.9909 167.154C19.0688 168.719 20.7787 172.062 20.2453 175.473C19.7418 178.693 21.6241 181.755 24.7198 182.76C28.0056 183.824 30.2162 186.86 30.223 190.312C30.2299 193.567 32.5677 196.299 35.7837 196.807C39.194 197.347 41.8533 199.998 42.3991 203.407C42.9135 206.621 45.6493 208.952 48.9023 208.952H48.9106C52.3619 208.952 55.4015 211.154 56.4739 214.435C57.4862 217.529 60.5586 219.404 63.7692 218.892C67.1754 218.354 70.5268 220.051 72.1013 223.126C73.5842 226.023 76.911 227.398 80.004 226.388C83.2897 225.322 86.8601 226.475 88.8942 229.265C90.8162 231.895 94.3113 232.729 97.2127 231.251C98.3631 230.664 99.6039 230.378 100.832 230.378ZM111.088 236C109.049 236 107.025 235.212 105.477 233.67C103.453 231.654 100.381 231.17 97.8337 232.468C94.3318 234.255 90.1076 233.246 87.7903 230.07C86.1036 227.763 83.1448 226.803 80.428 227.689C76.6908 228.909 72.6759 227.25 70.8838 223.749C69.5803 221.205 66.8087 219.795 63.9853 220.245C60.1004 220.852 56.396 218.599 55.1743 214.86C54.2866 212.144 51.7696 210.319 48.9119 210.319H48.9023C44.9736 210.319 41.6714 207.504 41.0489 203.624C40.5962 200.801 38.3938 198.605 35.5703 198.158C31.6867 197.546 28.8633 194.247 28.8551 190.315C28.8497 187.456 27.0179 184.943 24.2998 184.062C20.5585 182.848 18.2849 179.148 18.8938 175.263C19.3342 172.439 17.9197 169.67 15.3712 168.373C11.8679 166.591 10.2004 162.579 11.4083 158.839C12.2851 156.119 11.3208 153.163 9.00757 151.481C5.82572 149.174 4.80659 144.952 6.58629 141.443C7.879 138.895 7.38791 135.824 5.36472 133.803C2.58369 131.025 2.2376 126.695 4.54122 123.511C6.21832 121.195 6.21422 118.084 4.53301 115.773C2.21981 112.593 2.55496 108.264 5.33189 105.477C7.34688 103.453 7.83113 100.38 6.53021 97.8331C4.74504 94.3312 5.75322 90.107 8.92959 87.791C11.2387 86.1058 12.1962 83.1482 11.3112 80.4287C10.0951 76.6888 11.7517 72.6752 15.2509 70.8832C17.7966 69.5809 19.2042 66.808 18.7556 63.986C18.1386 60.1024 20.4025 56.3966 24.1411 55.1736C26.8579 54.2845 28.6827 51.7675 28.68 48.9085C28.6786 44.977 31.4939 41.6707 35.3761 41.0482C38.1995 40.5955 40.3951 38.3945 40.8411 35.5696C41.4552 31.686 44.7534 28.8626 48.6848 28.8544C51.5439 28.8489 54.0581 27.0186 54.9391 24.2991C56.1525 20.5592 59.8486 18.2883 63.7364 18.8916C66.5625 19.3403 69.3326 17.9189 70.6267 15.3719C72.4105 11.8672 76.4186 10.1983 80.1626 11.4089C82.8849 12.2858 85.8397 11.3214 87.5181 9.00679C89.8272 5.82631 94.05 4.80856 97.5547 6.58553C100.105 7.87687 103.177 7.38714 105.196 5.36532C107.977 2.58565 112.307 2.23955 115.49 4.5418C117.806 6.21891 120.917 6.2148 123.227 4.53223C126.406 2.21902 130.736 2.55692 133.523 5.32975C135.55 7.34748 138.622 7.829 141.165 6.53081C144.671 4.74153 148.892 5.75245 151.211 8.92882C152.895 11.2393 155.852 12.1955 158.572 11.3104C162.304 10.0957 166.325 11.7509 168.118 15.2514C169.421 17.7958 172.197 19.2008 175.014 18.7561C178.903 18.1365 182.604 20.4031 183.827 24.1404C184.714 26.8558 187.231 28.6807 190.088 28.6807H190.096C194.025 28.6807 197.329 31.4959 197.953 35.3767C198.404 38.2001 200.606 40.3957 203.429 40.8417C207.314 41.4545 210.137 44.754 210.145 48.6855C210.151 51.5445 211.982 54.0574 214.702 54.9384C218.441 56.1531 220.715 59.852 220.107 63.737C219.666 66.5618 221.08 69.3306 223.628 70.6261C227.133 72.4098 228.799 76.4207 227.592 80.162C226.714 82.8828 227.679 85.839 229.992 87.5175C233.174 89.8279 234.194 94.0494 232.415 97.5555C231.122 100.107 231.614 103.176 233.636 105.197C236.416 107.975 236.763 112.305 234.458 115.49C232.782 117.806 232.786 120.915 234.467 123.227C236.78 126.407 236.445 130.736 233.67 133.522C231.651 135.549 231.169 138.621 232.468 141.165C234.256 144.668 233.248 148.892 230.071 151.21C227.761 152.894 226.804 155.853 227.689 158.573C228.906 162.31 227.25 166.325 223.747 168.117C221.203 169.418 219.798 172.192 220.246 175.016C220.861 178.899 218.596 182.605 214.859 183.827C212.144 184.715 210.319 187.233 210.32 190.091C210.322 194.025 207.504 197.329 203.624 197.952C200.801 198.405 198.605 200.605 198.159 203.431C197.547 207.314 194.247 210.138 190.316 210.146C187.456 210.153 184.944 211.983 184.061 214.701C182.849 218.44 179.157 220.714 175.264 220.107C172.433 219.672 169.669 221.083 168.373 223.628C166.592 227.132 162.579 228.802 158.839 227.592C156.12 226.713 153.161 227.676 151.482 229.993C149.175 233.173 144.956 234.193 141.444 232.416C138.901 231.125 135.829 231.612 133.804 233.635C131.025 236.418 126.695 236.762 123.511 234.457C121.192 232.782 118.082 232.788 115.773 234.466C114.36 235.495 112.718 236 111.088 236Z" stroke="white" stroke-width="4" mask="url(#path-2-outside-1)"/>
<path d="M66.443 175.878L61.5589 181.569C62.9962 182.794 63.7896 183.469 63.9362 183.595C64.3416 183.945 64.8537 184.165 65.471 184.254C66.0243 184.335 66.5256 184.294 66.9749 184.131C67.5616 183.93 68.1737 183.458 68.8097 182.714C69.655 181.73 69.9937 180.738 69.8243 179.741C69.6897 178.993 69.3149 178.357 68.7029 177.833C68.2709 177.461 68.0789 177.293 68.1256 177.322L66.443 175.878ZM61.0177 182.201L57.6376 186.137L58.4362 186.823L58.103 187.21L54.9417 184.497L55.2737 184.11L56.0562 184.781L64.8882 174.489L64.1069 173.817L64.4376 173.43L68.4629 176.883L69.1029 177.447L69.7829 178.03C70.6656 178.899 71.1549 179.667 71.2509 180.334C71.3296 180.914 71.2949 181.519 71.1456 182.151C70.9936 182.873 70.7189 183.465 70.3202 183.929C69.4842 184.905 68.5216 185.471 67.4296 185.634C66.3442 185.791 65.3002 185.521 64.2962 184.825C63.5069 184.283 63.0509 183.957 62.9282 183.843L61.0177 182.201Z" fill="#A37250"/>
<path d="M62.5003 181.495L64.371 183.09C64.683 183.358 65.0737 183.523 65.5683 183.594C66.0097 183.659 66.407 183.63 66.7497 183.506C67.2297 183.341 67.7497 182.929 68.3043 182.281C69.0217 181.446 69.3043 180.651 69.167 179.854C69.0603 179.262 68.767 178.765 68.2697 178.339C68.0323 178.134 67.839 177.969 67.6963 177.821L67.6923 177.829L66.515 176.818L62.5003 181.495ZM66.227 184.955C66.5897 185.023 66.9603 185.03 67.335 184.974C68.2683 184.835 69.0817 184.351 69.815 183.495C70.1377 183.119 70.3657 182.622 70.4937 182.014C70.627 181.45 70.6577 180.919 70.591 180.422C70.5817 180.355 70.563 180.275 70.5323 180.186C70.5483 181.194 70.1403 182.189 69.3163 183.147C68.595 183.99 67.9003 184.519 67.1937 184.762C66.8923 184.871 66.5683 184.935 66.227 184.955ZM56.6643 185.095L57.2337 185.585L60.619 181.642L60.6177 181.641L65.8617 175.53L65.2937 175.042L56.6643 185.095ZM58.1737 188.149L54.0017 184.569L55.2017 183.17L55.9843 183.841L63.9497 174.561L63.1683 173.889L64.3643 172.489L70.2177 177.523C71.2497 178.538 71.7937 179.415 71.9123 180.239C72.0017 180.905 71.9617 181.597 71.7963 182.303C71.6243 183.119 71.2963 183.817 70.827 184.363C69.8883 185.458 68.779 186.107 67.5283 186.294C66.2737 186.478 65.0577 186.165 63.9163 185.373C62.839 184.633 62.583 184.431 62.475 184.333L61.0883 183.141L58.5777 186.066L59.3777 186.753L58.1737 188.149Z" fill="#A37250"/>
<path d="M72.814 192.704L78.222 195.774L78.9166 188.01L72.814 192.704ZM79.69 201.184L80.4686 201.626L80.2166 202.07L76.4753 199.946L76.7286 199.502L77.67 200.037L78.15 196.344L72.362 193.057L69.4273 195.356L71.0126 196.256L70.7606 196.7L67.0193 194.576L67.2726 194.132L68.7393 194.965L80.8446 185.608L79.69 201.184Z" fill="#A37250"/>
<path d="M74.0172 192.62L77.6506 194.683L78.1172 189.467L74.0172 192.62ZM78.3186 200.226L79.0612 200.648L80.0706 187.05L79.6439 187.379L78.7932 196.866L78.7586 196.844L78.3186 200.226ZM80.4666 202.98L75.5666 200.196L76.4786 198.592L77.1372 198.967L77.4319 196.703L72.4226 193.858L70.6226 195.267L71.9239 196.006L71.0106 197.608L66.1106 194.826L67.0226 193.223L68.6839 194.166L81.6212 184.164L80.3866 200.814L81.3786 201.376L80.4666 202.98Z" fill="#A37250"/>
<path d="M92.8817 191.154L92.7204 191.637L91.7604 191.314L87.4364 204.147L92.7377 205.933C93.627 205.858 94.2964 205.235 94.743 204.059L95.1284 204.189L94.203 206.933L94.1537 206.915L94.143 206.946L84.2244 203.603L84.3857 203.119L85.3737 203.453L89.699 190.619L88.7217 190.291L88.8844 189.806L92.8817 191.154Z" fill="#A37250"/>
<path d="M86.0562 203.517L86.8549 203.785L91.0802 191.251L90.2816 190.981L86.0562 203.517ZM94.6216 207.78L83.3816 204.023L83.9656 202.273L84.9562 202.607L88.8549 191.039L87.8776 190.711L88.4656 188.961L93.7256 190.735L93.1402 192.483L92.1802 192.157L88.2816 203.728L92.8096 205.253C93.1069 205.205 93.6762 204.991 94.1202 203.823L94.3482 203.221L95.9722 203.771L94.6216 207.78Z" fill="#A37250"/>
<path d="M105.199 194.375L105.121 194.879L104.121 194.722L102.014 208.098L107.541 208.969C108.405 208.746 108.958 208.018 109.203 206.785L109.605 206.847L109.154 209.707L109.102 209.699L109.098 209.731L98.7554 208.102L98.8368 207.597L99.8648 207.759L101.971 194.383L100.953 194.222L101.031 193.718L105.199 194.375Z" fill="#A37250"/>
<path d="M100.548 207.709L101.38 207.841L103.439 194.773L102.606 194.641L100.548 207.709ZM109.679 210.465L108.995 210.39L97.9924 208.657L98.283 206.834L99.3097 206.997L101.21 194.938L100.192 194.777L100.475 192.955L105.96 193.821L105.679 195.642L104.676 195.483L102.778 207.543L107.498 208.287C107.783 208.189 108.306 207.883 108.55 206.654L108.675 206.026L110.367 206.291L109.71 210.465L109.679 210.459V210.465Z" fill="#A37250"/>
<path d="M119.057 209.53L118.924 203.596L114.096 196.068L113.129 196.089L113.116 195.578L117.209 195.486L117.221 195.997L116.533 196.012L121.048 203.068L125.04 195.809L124.053 195.833L124.04 195.322L126.832 195.258L126.843 195.769L125.791 195.793L121.487 203.549L121.62 209.473L122.661 209.449L122.673 209.958L121.632 209.984L121.633 209.994L119.071 210.052V210.041L118.06 210.064L118.048 209.554L119.057 209.53Z" fill="#A37250"/>
<path d="M119.737 209.359V209.369L120.95 209.343L120.829 203.964L115.853 196.184L114.976 196.204L119.588 203.393L119.737 209.359ZM117.409 210.747L117.368 208.903L118.376 208.88L118.264 203.797L113.737 196.743L112.48 196.771L112.432 194.928L117.861 194.805L117.904 196.648L117.734 196.652L121.005 201.764L123.898 196.503L123.404 196.515L123.357 194.671L127.485 194.576L127.522 196.42L126.188 196.451L122.157 203.715L122.27 208.792L123.313 208.769L123.356 210.609L118.404 210.733V210.723L117.409 210.747Z" fill="#A37250"/>
<path d="M141.479 206.513C142.874 206.221 143.809 205.479 144.283 204.283C144.761 203.085 144.755 201.517 144.262 199.579L144.243 199.508C144.218 199.436 144.102 199.079 143.895 198.436C143.423 196.687 142.771 195.365 141.938 194.473C140.859 193.279 139.526 192.892 137.934 193.316C137.853 193.336 136.695 193.644 134.461 194.236L134.391 194.255L137.895 207.464L141.479 206.513ZM134.83 208.869L134.698 208.376L135.705 208.109L135.726 208.104L132.257 195.025L132.235 195.031L132.207 194.92L131.199 195.187L131.067 194.695L132.075 194.428L132.078 194.436L137.385 193.029C138.022 192.86 138.722 192.759 139.481 192.721C140.971 192.656 142.118 192.928 142.917 193.535C144.466 194.717 145.515 196.081 146.062 197.625C146.114 197.768 146.147 197.868 146.162 197.923L146.199 198.063C146.239 198.189 146.277 198.352 146.306 198.551C146.642 200.409 146.419 202.132 145.641 203.717C144.745 205.485 143.399 206.589 141.605 207.029L134.83 208.869Z" fill="#A37250"/>
<path d="M142.383 193.973C142.4 193.99 142.415 194.008 142.432 194.026C143.33 194.986 144.04 196.414 144.538 198.264C144.732 198.86 144.844 199.21 144.87 199.28L144.908 199.412C145.24 200.721 145.362 201.889 145.272 202.908C145.795 201.602 145.922 200.177 145.65 198.669C145.624 198.494 145.596 198.365 145.564 198.266L145.519 198.096C145.506 198.048 145.476 197.968 145.435 197.853C144.934 196.437 143.952 195.164 142.512 194.064C142.47 194.033 142.427 194.001 142.383 193.973ZM135.206 194.728L138.368 206.649L141.343 205.861C142.515 205.616 143.274 205.018 143.663 204.037C144.087 202.974 144.071 201.53 143.616 199.742C143.59 199.664 143.471 199.297 143.26 198.641C142.81 196.974 142.204 195.734 141.451 194.929C140.538 193.918 139.451 193.6 138.104 193.96L135.206 194.728ZM132.914 194.904L136.327 207.772L137.222 207.528L133.81 194.668L132.914 194.904ZM134.358 209.688L133.882 207.904L134.911 207.63L131.782 195.832L131.778 195.833L131.747 195.73L130.727 196.001L130.251 194.221L132.536 193.614L132.539 193.624L137.214 192.385C137.89 192.205 138.642 192.094 139.448 192.057C141.106 191.973 142.398 192.302 143.32 193.002C144.97 194.264 146.104 195.744 146.69 197.402C146.75 197.569 146.79 197.688 146.806 197.753L146.843 197.89C146.883 198.013 146.928 198.21 146.966 198.452C147.322 200.424 147.079 202.301 146.24 204.012C145.251 205.96 143.746 207.19 141.763 207.676L134.358 209.688Z" fill="#A37250"/>
<path d="M157.06 191.555L157.049 191.536L157.015 191.555L157.023 191.574L157.06 191.555ZM160.86 198.847C161.323 198.195 161.327 197.354 160.868 196.316L161.235 196.139L162.5 198.744L162.472 198.756L162.485 198.786L153.052 203.371L152.828 202.914L153.765 202.458L147.821 190.232L146.885 190.688L146.661 190.228L156.077 185.651L156.091 185.679L156.139 185.656L157.359 188.167L156.992 188.346C156.429 187.299 155.701 186.795 154.811 186.835L149.78 189.28L151.739 193.308L155.101 191.674C155.729 191.059 155.833 190.263 155.412 189.287L155.777 189.11L157.8 193.268L157.433 193.447C156.932 192.526 156.257 192.115 155.413 192.218L152.008 193.86L155.66 201.374L160.86 198.847Z" fill="#A37250"/>
<path d="M156.025 191.562C156.1 191.574 156.174 191.588 156.25 191.606L156.129 191.358C156.097 191.428 156.062 191.496 156.025 191.562ZM148.49 190.082L154.297 202.026L155.056 201.656L149.249 189.711L148.49 190.082ZM152.745 204.262L151.937 202.606L152.876 202.148L147.514 191.124L146.578 191.579L145.77 189.922L156.368 184.768L156.386 184.803L156.402 184.795L156.737 185.366L158.249 188.475L156.709 189.226L156.405 188.66C155.886 187.695 155.356 187.514 154.968 187.5L150.67 189.59L152.048 192.419L154.705 191.126C154.962 190.842 155.166 190.402 154.8 189.551L154.546 188.966L156.086 188.219L157.28 190.675L157.984 191.826L157.869 191.886L158.69 193.576L157.153 194.326L156.848 193.766C156.413 192.967 155.933 192.846 155.596 192.87L152.9 194.171L155.969 200.483L160.401 198.328C160.538 198.082 160.692 197.566 160.26 196.587L159.998 195.998L161.544 195.25L163.398 199.068L162.777 199.384L152.745 204.262Z" fill="#A37250"/>
<path d="M162.206 181.551L162.507 181.963L161.691 182.559L169.679 193.494L174.197 190.193C174.65 189.423 174.525 188.518 173.823 187.474L174.15 187.235L175.859 189.573L175.817 189.603L175.837 189.629L167.383 195.805L167.081 195.393L167.923 194.778L159.933 183.845L159.101 184.453L158.799 184.039L162.206 181.551Z" fill="#A37250"/>
<path d="M160.563 183.577L168.369 194.259L169.049 193.761L161.245 183.079L160.563 183.577ZM167.239 196.736L166.148 195.248L166.991 194.632L159.788 184.775L158.955 185.384L157.868 183.893L162.351 180.62L163.437 182.107L162.623 182.704L169.824 192.561L173.684 189.743C173.815 189.471 173.969 188.884 173.269 187.847L172.913 187.316L174.295 186.303L176.792 189.717L167.239 196.736Z" fill="#A37250"/>
<path d="M170.197 175.711L169.447 176.421L169.097 176.05L172.118 173.183L172.471 173.553L171.707 174.277L181.042 184.117L181.805 183.393L182.155 183.762L179.133 186.63L178.782 186.259L179.53 185.55L170.197 175.711Z" fill="#A37250"/>
<path d="M170.787 175.365L179.907 184.977L180.451 184.461L171.331 174.849L170.787 175.365ZM179.107 187.574L177.841 186.233L178.588 185.525L170.171 176.653L169.421 177.364L168.155 176.024L172.143 172.241L173.416 173.576L172.649 174.301L181.067 183.173L181.829 182.449L183.096 183.786L179.107 187.574Z" fill="#A37250"/>
<path d="M55.8544 152.498C56.833 154.538 57.0384 156.951 56.2344 159.257C55.4304 161.563 53.7704 163.325 51.7344 164.314C50.7557 162.274 50.549 159.861 51.3544 157.555C52.1584 155.249 53.8184 153.487 55.8544 152.498Z" fill="#A37250"/>
<path d="M52.0263 144.573C53.0063 146.613 53.2117 149.027 52.4077 151.332C51.6037 153.639 49.9437 155.4 47.9077 156.389C46.9277 154.349 46.7223 151.936 47.5263 149.631C48.3317 147.324 49.9917 145.563 52.0263 144.573Z" fill="#A37250"/>
<path d="M47.8961 136.021C48.8747 138.06 49.0801 140.473 48.2761 142.779C47.4721 145.085 45.8121 146.848 43.7761 147.836C42.7974 145.796 42.5921 143.383 43.3961 141.079C44.2001 138.772 45.8601 137.009 47.8961 136.021Z" fill="#A37250"/>
<path d="M43.887 127.719C44.8657 129.759 45.071 132.173 44.267 134.478C43.463 136.785 41.803 138.546 39.767 139.535C38.787 137.495 38.5817 135.082 39.387 132.777C40.191 130.47 41.851 128.707 43.887 127.719Z" fill="#A37250"/>
<path d="M40.5354 163.93C41.5234 165.965 43.286 167.625 45.5927 168.429C47.898 169.234 50.3114 169.029 52.3514 168.049C51.362 166.013 49.5994 164.353 47.294 163.549C44.9887 162.745 42.5754 162.95 40.5354 163.93Z" fill="#A37250"/>
<path d="M36.7085 156.006C37.6965 158.04 39.4592 159.7 41.7658 160.506C44.0712 161.31 46.4832 161.104 48.5232 160.126C47.5352 158.088 45.7725 156.428 43.4658 155.626C41.1605 154.82 38.7485 155.027 36.7085 156.006Z" fill="#A37250"/>
<path d="M32.5769 147.452C33.5663 149.487 35.3276 151.148 37.6343 151.952C39.9396 152.756 42.3529 152.551 44.3929 151.572C43.4036 149.535 41.6423 147.875 39.3356 147.072C37.0303 146.268 34.6169 146.474 32.5769 147.452Z" fill="#A37250"/>
<path d="M28.5679 139.151C29.5559 141.186 31.3186 142.846 33.6253 143.65C35.9306 144.455 38.3439 144.25 40.3826 143.27C39.3946 141.234 37.6319 139.574 35.3266 138.77C33.0213 137.966 30.6079 138.171 28.5679 139.151Z" fill="#A37250"/>
<path d="M184.122 152.34C183.149 154.382 182.949 156.796 183.76 159.099C184.569 161.403 186.233 163.162 188.27 164.146C189.246 162.103 189.444 159.69 188.636 157.386C187.825 155.083 186.16 153.323 184.122 152.34Z" fill="#A37250"/>
<path d="M187.93 144.407C186.956 146.448 186.756 148.863 187.567 151.165C188.376 153.469 190.04 155.228 192.079 156.212C193.054 154.169 193.252 151.756 192.443 149.452C191.632 147.149 189.968 145.389 187.93 144.407Z" fill="#A37250"/>
<path d="M192.04 135.843C191.066 137.886 190.867 140.299 191.676 142.603C192.486 144.907 194.151 146.664 196.188 147.648C197.163 145.606 197.362 143.194 196.552 140.89C195.742 138.586 194.078 136.827 192.04 135.843Z" fill="#A37250"/>
<path d="M196.029 127.532C195.055 129.574 194.855 131.988 195.666 134.29C196.475 136.596 198.139 138.353 200.177 139.337C201.153 137.294 201.35 134.882 200.542 132.577C199.731 130.274 198.067 128.516 196.029 127.532Z" fill="#A37250"/>
<path d="M199.469 163.733C198.486 165.771 196.726 167.436 194.424 168.247C192.12 169.055 189.706 168.857 187.664 167.881C188.648 165.844 190.406 164.18 192.71 163.371C195.013 162.56 197.428 162.76 199.469 163.733Z" fill="#A37250"/>
<path d="M203.278 155.8C202.294 157.837 200.535 159.503 198.231 160.313C195.927 161.121 193.515 160.924 191.472 159.948C192.456 157.911 194.214 156.247 196.518 155.437C198.822 154.627 201.235 154.827 203.278 155.8Z" fill="#A37250"/>
<path d="M207.387 147.237C206.403 149.275 204.644 150.939 202.342 151.749C200.036 152.559 197.624 152.36 195.582 151.385C196.566 149.348 198.323 147.683 200.628 146.873C202.931 146.064 205.344 146.263 207.387 147.237Z" fill="#A37250"/>
<path d="M211.376 138.925C210.392 140.964 208.634 142.628 206.33 143.438C204.026 144.248 201.612 144.049 199.571 143.074C200.554 141.036 202.312 139.372 204.616 138.562C206.92 137.752 209.334 137.952 211.376 138.925Z" fill="#A37250"/>
<path d="M141.718 84.1072C141.411 82.4312 140.328 80.7885 139.695 79.2099C138.991 77.4525 138.392 75.6965 137.951 73.8539C137.528 72.0845 137.271 70.3019 137.208 68.4832C137.178 67.5739 137.186 66.6605 137.22 65.7512C137.255 64.7952 137.402 63.8579 136.858 63.0139C136.436 62.3565 135.604 62.3739 135.072 62.8592C134.303 63.5619 134.26 64.6885 134.184 65.6645C134.107 66.6365 134.1 67.6059 134.155 68.5792C134.272 70.6405 134.598 72.7299 135.158 74.7179C135.69 76.6112 136.471 78.5485 137.475 80.2405C138.376 81.7565 139.602 83.7165 141.248 84.4965C141.527 84.6285 141.768 84.3845 141.718 84.1072Z" fill="#A37250"/>
<path d="M135.559 70.5051C139.168 71.5491 143.041 69.9251 145.937 67.7784C149.032 65.4824 151.372 62.2077 152.503 58.5237C154.821 50.9531 152.043 42.1024 145.677 37.3611C138.884 32.3011 130.248 32.1331 122.891 36.0771C118.843 38.2464 115.377 41.3731 112.013 44.4584C108.571 47.6157 105.124 50.7637 101.411 53.6064C97.2228 56.8131 92.7241 59.7251 87.8401 61.7544C82.7921 63.8517 77.6188 64.8517 72.1774 65.1584C69.7308 65.2971 69.9881 68.6371 72.2934 68.8557C80.8694 69.6677 89.6814 66.1171 96.8814 61.7277C104.303 57.2024 110.496 51.1957 116.932 45.4317C122.748 40.2264 129.757 35.5584 137.876 37.8091C144.799 39.7277 149.484 46.0011 149.488 53.1664C149.491 57.0691 147.976 60.8664 145.329 63.7264C142.569 66.7104 139.013 68.1851 135.471 69.9917C135.239 70.1104 135.347 70.4437 135.559 70.5051Z" fill="#A37250"/>
<path d="M94.2229 80.2849C93.3962 80.3903 92.5389 80.4209 91.7202 80.5863C90.9002 80.7529 90.1109 81.0983 89.3082 81.3476C87.5362 81.8969 85.7509 82.3543 83.9042 82.5609C81.2562 82.8556 78.6069 82.5676 76.0749 81.7369C70.9336 80.0489 66.7162 76.0143 65.1016 70.8289C63.4896 65.6569 64.3016 59.6303 67.7202 55.3423C71.1909 50.9916 76.7016 48.3636 82.2962 48.7716C88.2802 49.2089 93.6016 53.0436 96.2949 58.3236C97.5736 60.8316 101.252 58.4583 99.9842 55.9609C97.0309 50.1423 91.2069 45.8463 84.7909 44.6676C77.9882 43.4183 70.9709 45.7889 66.0376 50.5729C55.8056 60.4983 58.9042 78.6889 71.8922 84.5956C75.2469 86.1209 78.9682 86.8716 82.6469 86.4569C84.9189 86.2009 87.0842 85.5396 89.1709 84.6103C90.1202 84.1863 91.0749 83.7289 91.9669 83.1929C92.9642 82.5903 93.7016 81.7383 94.5042 80.8969C94.7069 80.6836 94.5416 80.2449 94.2229 80.2849Z" fill="#A37250"/>
<path d="M80.2217 85.4067C80.683 86.848 81.399 88.18 81.9883 89.5733C82.627 91.0827 83.0977 92.668 83.4363 94.2693C83.7497 95.7507 83.855 97.2747 83.8243 98.7867C83.7937 100.411 83.2963 101.961 83.5497 103.581C84.007 106.499 86.087 104.505 87.3177 104.125C89.1177 103.568 87.495 100.576 87.4977 98.804C87.5003 96.9894 87.1763 95.152 86.6923 93.4067C85.8217 90.2627 84.1337 86.2893 81.1417 84.6413C80.651 84.372 80.0523 84.8774 80.2217 85.4067Z" fill="#A37250"/>
<path d="M85.3909 103.784C87.4442 102.524 89.1255 100.706 90.8215 99.013C92.4735 97.3623 94.2082 95.7863 95.9829 94.2676C99.6962 91.0863 103.745 88.2303 107.984 85.797C112.18 83.3903 116.773 81.041 121.556 80.1036C123.717 79.6796 125.993 79.6836 128.092 80.3983C130.004 81.0503 131.619 82.3623 133.083 83.7116C134.272 84.8103 136.241 83.5703 135.752 82.021C134.591 78.341 130.833 76.3236 127.208 75.6983C122.761 74.933 118.332 76.1303 114.255 77.8596C106.363 81.2076 99.0855 85.853 92.8069 91.697C89.5189 94.7596 85.5629 98.561 84.2322 102.965C84.0322 103.629 84.8522 104.116 85.3909 103.784Z" fill="#A37250"/>
<path d="M141.134 84.0096C137.833 87.167 132.808 86.131 128.653 86.4203C123.848 86.7536 119.07 87.5536 114.429 88.8403C109.777 90.127 105.262 91.8763 100.938 94.0163C98.7556 95.0976 96.6249 96.2843 94.5582 97.575C92.5636 98.823 90.5049 100.116 88.9809 101.932C88.3809 102.648 89.0475 104.108 90.0635 103.642C92.3702 102.584 94.3822 101.026 96.5342 99.6936C98.6062 98.4123 101.121 98.4656 103.31 97.3963C107.884 95.1603 112.716 93.4336 117.653 92.2016C122.617 90.9616 127.273 89.0083 132.38 88.7243C135.854 88.5296 140.848 88.4896 142.242 84.5936C142.481 83.9296 141.552 83.6096 141.134 84.0096Z" fill="#A37250"/>
<path d="M159.761 111.387C158.682 108.557 157.051 106.05 154.859 103.863C152.67 101.678 149.855 99.9232 146.422 98.5965C142.989 97.2712 138.91 96.6112 134.191 96.6165C133.505 96.6179 132.861 96.6179 132.262 96.6192C131.661 96.6192 130.93 96.6645 130.073 96.7499L111.669 97.8032C110.209 97.8912 108.065 97.9579 105.233 98.0032C102.401 98.0512 98.882 98.0765 94.678 98.0819L94.6806 100.655C99.3153 101.164 102.641 101.977 104.661 103.089C106.677 104.202 107.689 106.389 107.693 109.65L107.767 170.661C107.77 172.293 107.557 173.451 107.127 174.138C106.699 174.826 105.843 175.298 104.557 175.557L97.3486 176.725L97.3513 178.913C105.931 178.643 112.11 178.509 115.887 178.503C117.859 178.501 120.219 178.542 122.966 178.623C125.711 178.706 128.887 178.83 132.493 178.997L132.49 176.809L123.219 174.761C121.33 174.335 120.107 173.822 119.549 173.221C118.989 172.623 118.71 171.678 118.709 170.39L118.623 101.527C119.397 101.268 120.317 101.054 121.391 100.881C122.462 100.707 123.685 100.619 125.059 100.618C126.087 100.532 127.095 100.508 128.083 100.55C129.069 100.592 130.034 100.698 130.979 100.869C134.154 101.295 136.902 102.106 139.221 103.304C141.539 104.503 143.471 106.001 145.018 107.802C146.566 109.602 147.727 111.639 148.502 113.911C149.277 116.185 149.666 118.523 149.669 120.925C149.673 123.843 149.202 126.461 148.262 128.778C147.321 131.097 146.058 133.051 144.473 134.639C142.886 136.231 141.001 137.457 138.813 138.314C136.626 139.177 134.245 139.607 131.671 139.611C130.354 139.613 129.089 139.499 127.869 139.285L127.827 105.37L122.629 102.407L122.673 137.289C122.673 137.289 122.959 138.059 123.951 139.231L123.947 139.235C123.963 139.253 123.982 139.269 123.998 139.287C124.214 139.539 124.451 139.803 124.737 140.089C124.751 140.103 124.778 140.111 124.797 140.123C127.585 142.863 131.415 144.246 136.31 144.239C139.741 144.235 142.981 143.61 146.026 142.361C149.069 141.114 151.73 139.415 154.001 137.266C156.271 135.121 158.069 132.585 159.398 129.666C160.723 126.749 161.385 123.614 161.381 120.267C161.377 117.178 160.837 114.218 159.761 111.387Z" fill="#A37250"/>
<path d="M101.357 227.52C103.36 227.52 105.334 228.299 106.826 229.784C109.074 232.025 112.568 232.293 115.134 230.428C117.857 228.448 121.518 228.447 124.244 230.416C126.816 232.279 130.309 231.999 132.55 229.752C134.929 227.372 138.542 226.796 141.546 228.317C144.374 229.752 147.781 228.928 149.648 226.361C151.624 223.637 155.106 222.501 158.305 223.537C161.325 224.505 164.561 223.165 166.001 220.337C167.526 217.339 170.781 215.667 174.11 216.192C177.249 216.68 180.233 214.845 181.212 211.828C182.25 208.628 185.209 206.473 188.573 206.467C191.746 206.46 194.409 204.181 194.904 201.047C195.429 197.723 198.013 195.132 201.336 194.599C204.469 194.096 206.742 191.428 206.741 188.253C206.74 184.889 208.886 181.927 212.085 180.879C215.101 179.892 216.929 176.903 216.432 173.768C215.902 170.443 217.56 167.18 220.556 165.648C223.382 164.201 224.718 160.961 223.736 157.944C222.694 154.744 223.822 151.261 226.54 149.277C229.104 147.407 229.918 143.997 228.476 141.172C226.945 138.175 227.513 134.559 229.888 132.175C232.128 129.927 232.398 126.432 230.533 123.865C228.552 121.144 228.549 117.484 230.521 114.757C232.382 112.187 232.102 108.692 229.857 106.449C227.477 104.072 226.9 100.457 228.421 97.456C229.857 94.6253 229.034 91.2187 226.465 89.3547C223.742 87.3787 222.606 83.8987 223.641 80.696C224.616 77.676 223.27 74.4387 220.441 73C217.442 71.4733 215.777 68.2147 216.297 64.8907C216.786 61.7547 214.952 58.768 211.934 57.7893C208.733 56.7507 206.577 53.7933 206.57 50.428C206.564 47.2547 204.285 44.592 201.15 44.096C197.828 43.572 195.236 40.988 194.702 37.664C194.2 34.532 191.534 32.26 188.362 32.26H188.353C184.99 32.26 182.029 30.112 180.984 26.9147C179.997 23.9 177.013 22.0773 173.872 22.5693C170.554 23.1027 167.286 21.44 165.752 18.4453C164.305 15.62 161.065 14.2813 158.048 15.2653C154.85 16.3053 151.368 15.18 149.384 12.4613C147.513 9.89732 144.1 9.08399 141.276 10.5253C138.277 12.0533 134.662 11.4866 132.28 9.11065C130.03 6.87465 126.536 6.60266 123.969 8.46799C121.248 10.448 117.588 10.4507 114.862 8.47999C112.29 6.61866 108.796 6.89866 106.553 9.144C104.176 11.524 100.561 12.1 97.5596 10.5787C94.7302 9.144 91.3236 9.96533 89.4582 12.5347C87.4809 15.2573 83.9996 16.392 80.7996 15.36C77.7822 14.3853 74.5449 15.7307 73.1049 18.5587C71.5782 21.5573 68.3196 23.224 64.9956 22.704C61.8636 22.212 58.8729 24.0493 57.8929 27.068C56.8556 30.268 53.8969 32.4227 50.5316 32.4293C47.3582 32.436 44.6956 34.7147 44.2009 37.8507C43.6756 41.1733 41.0916 43.7653 37.7689 44.2973C34.6356 44.8 32.3622 47.468 32.3636 50.6427C32.3662 54.0067 30.2182 56.9707 27.0196 58.0173C24.0022 59.0027 22.1756 61.9947 22.6729 65.1293C23.2022 68.452 21.5449 71.7147 18.5502 73.248C15.7236 74.6947 14.3862 77.9347 15.3689 80.952C16.4102 84.1533 15.2836 87.6347 12.5649 89.6173C10.0009 91.488 9.18756 94.8973 10.6289 97.724C12.1596 100.721 11.5902 104.337 9.21689 106.721C6.97689 108.969 6.70623 112.464 8.57156 115.031C10.5516 117.752 10.5555 121.412 8.58355 124.139C6.72222 126.711 7.00222 130.204 9.24756 132.447C11.6289 134.825 12.2062 138.437 10.6836 141.44C9.24889 144.269 10.0702 147.677 12.6395 149.543C15.3622 151.519 16.4969 154.997 15.4649 158.2C14.4902 161.22 15.8342 164.456 18.6622 165.896C21.6622 167.421 23.3289 170.68 22.8089 174.005C22.3182 177.143 24.1529 180.128 27.1702 181.107C30.3729 182.144 32.5276 185.103 32.5342 188.468C32.5409 191.641 34.8196 194.304 37.9542 194.799C41.2782 195.325 43.8702 197.909 44.4022 201.232C44.9036 204.364 47.5702 206.636 50.7409 206.636H50.7489C54.1129 206.636 57.0756 208.783 58.1209 211.981C59.1076 214.996 62.1022 216.824 65.2316 216.325C68.5516 215.801 71.8182 217.455 73.3529 220.452C74.7982 223.275 78.0409 224.616 81.0556 223.631C84.2582 222.592 87.7382 223.716 89.7209 226.435C91.5942 228.999 95.0009 229.812 97.8289 228.371C98.9502 227.799 100.16 227.52 101.357 227.52ZM111.353 233C109.366 233 107.393 232.232 105.884 230.729C103.912 228.764 100.917 228.292 98.4342 229.557C95.0209 231.299 90.9036 230.316 88.6449 227.22C87.0009 224.971 84.1169 224.036 81.4689 224.899C77.8262 226.088 73.9129 224.471 72.1662 221.059C70.8956 218.579 68.1942 217.205 65.4422 217.644C61.6556 218.235 58.0449 216.039 56.8542 212.395C55.9889 209.748 53.5356 207.969 50.7502 207.969H50.7409C46.9116 207.969 43.6929 205.225 43.0862 201.443C42.6449 198.692 40.4982 196.551 37.7462 196.116C33.9609 195.519 31.2089 192.304 31.2009 188.471C31.1956 185.684 29.4102 183.235 26.7609 182.376C23.1142 181.193 20.8982 177.587 21.4916 173.8C21.9209 171.047 20.5422 168.348 18.0582 167.084C14.6436 165.347 13.0182 161.437 14.1955 157.791C15.0502 155.14 14.1102 152.259 11.8556 150.62C8.75422 148.371 7.76088 144.256 9.49555 140.836C10.7555 138.352 10.2769 135.359 8.30489 133.389C5.59422 130.681 5.25689 126.461 7.50222 123.357C9.13689 121.1 9.13289 118.068 7.49422 115.815C5.23955 112.716 5.56622 108.496 8.27289 105.78C10.2369 103.807 10.7089 100.812 9.44089 98.3293C7.70089 94.916 8.68356 90.7987 11.7796 88.5413C14.0302 86.8987 14.9635 84.016 14.1009 81.3653C12.9155 77.72 14.5302 73.808 17.9409 72.0613C20.4222 70.792 21.7942 68.0893 21.3569 65.3387C20.7556 61.5533 22.9622 57.9413 26.6062 56.7493C29.2542 55.8827 31.0329 53.4293 31.0302 50.6427C31.0289 46.8107 33.7729 43.588 37.5569 42.9813C40.3089 42.54 42.4489 40.3947 42.8836 37.6413C43.4822 33.856 46.6969 31.104 50.5289 31.096C53.3156 31.0907 55.7662 29.3067 56.6249 26.656C57.8076 23.0107 61.4102 20.7973 65.1996 21.3853C67.9542 21.8227 70.6542 20.4373 71.9156 17.9547C73.6542 14.5387 77.5609 12.912 81.2102 14.092C83.8636 14.9467 86.7436 14.0067 88.3796 11.7507C90.6302 8.65066 94.7462 7.65866 98.1622 9.39066C100.648 10.6493 103.642 10.172 105.61 8.20133C108.321 5.49199 112.541 5.15465 115.644 7.39865C117.901 9.03332 120.933 9.02932 123.185 7.38932C126.284 5.13465 130.504 5.46399 133.22 8.16666C135.196 10.1333 138.19 10.6027 140.669 9.33733C144.086 7.59333 148.201 8.57866 150.461 11.6747C152.102 13.9267 154.984 14.8586 157.636 13.996C161.273 12.812 165.192 14.4253 166.94 17.8373C168.21 20.3173 170.916 21.6867 173.662 21.2533C177.452 20.6493 181.06 22.8586 182.252 26.5013C183.116 29.148 185.569 30.9267 188.354 30.9267H188.362C192.192 30.9267 195.412 33.6707 196.02 37.4533C196.46 40.2053 198.606 42.3453 201.358 42.78C205.144 43.3773 207.896 46.5933 207.904 50.4253C207.91 53.212 209.694 55.6613 212.345 56.52C215.99 57.704 218.206 61.3093 217.614 65.096C217.184 67.8493 218.562 70.548 221.046 71.8107C224.462 73.5493 226.086 77.4587 224.909 81.1053C224.053 83.7573 224.994 86.6387 227.249 88.2747C230.35 90.5267 231.344 94.6413 229.61 98.0587C228.35 100.545 228.829 103.537 230.8 105.507C233.51 108.215 233.848 112.435 231.602 115.539C229.968 117.797 229.972 120.827 231.61 123.081C233.865 126.18 233.538 130.4 230.833 133.115C228.866 135.091 228.396 138.085 229.662 140.565C231.405 143.979 230.422 148.096 227.326 150.356C225.074 151.997 224.141 154.881 225.004 157.532C226.19 161.175 224.576 165.088 221.162 166.835C218.682 168.103 217.312 170.807 217.749 173.559C218.349 177.344 216.141 180.956 212.498 182.147C209.852 183.013 208.073 185.467 208.074 188.253C208.076 192.087 205.33 195.308 201.548 195.915C198.796 196.356 196.656 198.501 196.221 201.255C195.624 205.04 192.408 207.792 188.576 207.8C185.789 207.807 183.34 209.591 182.48 212.24C181.298 215.884 177.7 218.101 173.905 217.509C171.146 217.085 168.452 218.46 167.189 220.941C165.453 224.356 161.541 225.984 157.896 224.805C155.246 223.948 152.362 224.887 150.725 227.145C148.476 230.245 144.364 231.239 140.941 229.507C138.462 228.248 135.468 228.723 133.494 230.695C130.786 233.407 126.565 233.743 123.462 231.496C121.201 229.863 118.17 229.869 115.92 231.505C114.542 232.508 112.942 233 111.353 233Z" fill="#A37250"/>
<path d="M119.556 17.4484H119.427C92.1814 17.4817 66.5801 28.1231 47.3387 47.4124C28.0961 66.7004 17.5188 92.3284 17.5521 119.574C17.6214 175.771 63.3681 221.444 119.551 221.448H119.677C146.923 221.415 172.525 210.772 191.767 191.483C211.008 172.195 221.585 146.567 221.552 119.323C221.519 92.0777 210.877 66.4764 191.588 47.2337C172.331 28.0231 146.753 17.4484 119.556 17.4484ZM119.551 225.448C61.1601 225.451 13.6241 177.983 13.5521 119.579C13.5174 91.2644 24.5107 64.6324 44.5067 44.5871C64.5027 24.5417 91.1081 13.4831 119.421 13.4484H119.556C147.821 13.4484 174.399 24.4364 194.415 44.4017C214.459 64.3977 225.517 91.0044 225.552 119.318C225.587 147.631 214.595 174.263 194.599 194.31C174.603 214.355 147.996 225.414 119.683 225.448H119.551Z" fill="#A37250"/>
</svg>
